FFmpeg version SVN-r25716, Copyright (c) 2000-2010 the FFmpeg developers  built on Nov 10 2010 12:23:18 with gcc 4.1.2 20080704 (Red Hat 4.1.2-48)  configuration: --enable-libmp3lame --enable-shared --disable-mmx --arch=x86_64  libavutil     50.33. 0 / 50.33. 0  libavcore      0.12. 1 /  0.12. 1  libavcodec    52.94. 4 / 52.94. 4  libavformat   52.84. 0 / 52.84. 0  libavdevice   52. 2. 2 / 52. 2. 2  libavfilter    1.59. 0 /  1.59. 0  libswscale     0.12. 0 /  0.12. 0Input #0, avi, from '/RAID10/data/converted_video_files/41568.avi':  Duration: 00:00:12.00, start: 0.000000, bitrate: 9159 kb/s    Stream #0.0: Video: mjpeg, yuvj420p, 600x460 [PAR 72:72 DAR 30:23], 15.08 tbr, 15.08 tbn, 15.08 tbc[buffer @ 0xa3e5cf0] w:600 h:460 pixfmt:yuvj420p[ffsink @ 0xa3e57c0] auto-inserting filter 'auto-inserted scaler 0' between the filter 'src' and the filter 'out'[scale @ 0xa3e4cb0] w:600 h:460 fmt:yuvj420p -> w:600 h:460 fmt:yuv420p flags:0x4Output #0, flv, to '/RAID10/data/converted_video_files/41568.flv':  Metadata:    encoder         : Lavf52.84.0    Stream #0.0: Video: flv, yuv420p, 600x460 [PAR 1:1 DAR 30:23], q=2-31, 600 kb/s, 1k tbn, 24 tbcStream mapping:  Stream #0.0 -> #0.0Press [q] to stop encodingframe=   22 fps=  0 q=15.4 size=     416kB time=1.42 bitrate=2402.9kbits/s    frame=   56 fps= 49 q=12.8 size=     505kB time=3.67 bitrate=1128.3kbits/s    frame=   90 fps= 55 q=11.0 size=     620kB time=5.96 bitrate= 852.5kbits/s    frame=  125 fps= 58 q=11.3 size=     752kB time=8.25 bitrate= 747.1kbits/s    frame=  155 fps= 59 q=10.9 size=     864kB time=10.25 bitrate= 690.7kbits/s    frame=  181 fps= 58 q=8.4 Lsize=     994kB time=11.96 bitrate= 680.7kbits/s    video:991kB audio:0kB global headers:0kB muxing overhead 0.306178%